<?xml version="1.0" standalone="no"?>
<!DOCTYPE svg PUBLIC "-//W3C//DTD SVG 20010904//EN"
 "http://www.w3.org/TR/2001/REC-SVG-20010904/DTD/svg10.dtd">
<svg version="1.0" xmlns="http://www.w3.org/2000/svg"
 width="360.000000pt" height="360.000000pt" viewBox="0 0 360.000000 360.000000"
 preserveAspectRatio="xMidYMid meet">

<g transform="translate(0.000000,360.000000) scale(0.100000,-0.100000)"
fill="#000000" stroke="none">
<path d="M2390 3275 c-36 -67 -113 -84 -435 -95 -271 -9 -339 -21 -455 -78
-113 -55 -228 -175 -297 -308 -121 -232 -183 -539 -185 -908 -1 -196 10 -273
55 -385 14 -34 20 -61 15 -61 -6 0 -26 -13 -45 -30 -51 -45 -101 -40 -131 14
-15 27 -18 79 -22 453 -5 408 -6 422 -26 450 -49 66 -126 93 -262 93 -142 0
-287 -52 -411 -145 -95 -73 -154 -169 -135 -220 9 -22 60 -16 126 12 39 18 49
29 81 95 75 151 152 208 285 208 84 0 121 -15 142 -57 19 -38 27 -347 10 -368
-7 -8 -117 -66 -244 -129 -195 -95 -242 -122 -295 -171 -78 -73 -101 -116
-101 -190 0 -130 98 -202 262 -193 100 5 175 38 297 128 88 65 83 66 124 -16
52 -104 114 -126 215 -79 71 33 110 62 131 97 l18 28 41 -64 c102 -157 265
-273 452 -323 89 -23 272 -22 360 2 152 41 306 140 400 258 58 73 132 217 155
302 23 84 31 280 15 369 -44 252 -199 466 -414 571 -126 62 -196 78 -336 78
-97 0 -127 -5 -193 -27 -157 -53 -290 -138 -399 -255 -68 -74 -70 -75 -63 -41
26 124 98 297 164 393 80 117 210 200 361 231 41 8 156 17 255 21 202 6 292
21 366 62 94 51 172 165 173 253 1 38 -2 45 -20 48 -13 2 -25 -6 -34 -23z
m-460 -764 c153 -58 266 -211 333 -451 17 -62 21 -105 21 -250 1 -207 -15
-285 -91 -440 -57 -115 -146 -211 -238 -256 -55 -26 -69 -29 -165 -29 -94 0
-111 3 -164 28 -206 96 -345 353 -363 672 -21 366 147 676 402 742 68 17 197
9 265 -16z m-1220 -786 c0 -181 -6 -200 -74 -263 -177 -163 -438 -88 -386 110
20 73 92 133 276 226 87 45 165 81 172 82 9 0 12 -38 12 -155z"/>
<path d="M2475 2376 c-16 -12 -17 -16 -6 -30 10 -11 30 -16 72 -16 56 0 60 -2
79 -32 19 -32 20 -52 20 -471 l0 -438 -24 -24 c-15 -15 -40 -26 -72 -30 -27
-3 -56 -10 -64 -14 -20 -11 -25 -37 -8 -43 7 -2 191 -2 409 1 l395 6 75 37
c81 40 148 100 175 156 25 52 23 155 -4 207 -22 45 -93 115 -140 139 -17 9
-61 24 -98 34 l-68 19 45 11 c64 17 138 62 172 104 32 39 44 101 33 161 -10
51 -61 122 -114 156 -78 50 -143 61 -402 71 -352 13 -453 12 -475 -4z m644
-62 c63 -18 125 -72 141 -120 18 -53 15 -146 -5 -188 -22 -46 -70 -83 -131
-102 -60 -18 -275 -19 -292 -2 -13 13 -17 332 -5 377 3 13 19 29 37 37 43 18
190 18 255 -2z m43 -494 c110 -32 188 -131 188 -237 0 -64 -16 -107 -60 -157
-60 -68 -109 -89 -224 -94 -119 -5 -177 8 -218 48 l-28 28 0 207 c0 204 0 206
23 215 28 13 269 5 319 -10z"/>
<path d="M2405 764 c-55 -72 -116 -82 -580 -94 -366 -10 -444 -19 -525 -60
-101 -52 -190 -176 -190 -267 0 -38 3 -43 23 -43 14 0 28 11 39 29 9 16 30 37
47 46 54 27 217 43 521 50 435 9 513 23 613 115 81 74 139 207 107 245 -18 22
-24 19 -55 -21z"/>
</g>
</svg>
